<?xml version="1.0" standalone="no"?>
<!DOCTYPE svg PUBLIC "-//W3C//DTD SVG 20010904//EN"
 "http://www.w3.org/TR/2001/REC-SVG-20010904/DTD/svg10.dtd">
<svg version="1.0" xmlns="http://www.w3.org/2000/svg"
 width="678.000000pt" height="678.000000pt" viewBox="0 0 678.000000 678.000000"
 preserveAspectRatio="xMidYMid meet">
<metadata>
Created by potrace 1.11, written by Peter Selinger 2001-2013
</metadata>
<g transform="translate(0.000000,678.000000) scale(0.100000,-0.100000)"
fill="#000000" stroke="none">
<path d="M1380 5040 c0 -4 -9 -6 -21 -3 -19 5 -20 2 -18 -30 2 -20 0 -39 -3
-43 -4 -4 -3 -15 3 -25 5 -11 6 -19 2 -19 -4 0 -6 -43 -3 -96 3 -53 2 -98 -3
-101 -4 -2 -2 -13 3 -24 6 -10 7 -19 3 -19 -4 0 -6 -43 -3 -96 3 -53 2 -98 -3
-101 -4 -2 -2 -13 3 -24 6 -10 7 -19 3 -19 -4 0 -6 -43 -3 -96 3 -53 2 -98 -3
-101 -4 -2 -2 -13 3 -24 6 -10 7 -19 3 -19 -4 0 -6 -43 -3 -96 3 -53 2 -98 -3
-101 -4 -2 -2 -13 3 -24 6 -10 7 -19 3 -19 -4 0 -6 -43 -3 -96 3 -53 2 -98 -3
-101 -4 -2 -2 -13 3 -24 6 -10 7 -19 3 -19 -4 0 -6 -43 -3 -96 3 -53 2 -98 -3
-101 -4 -2 -2 -13 3 -24 6 -10 7 -19 3 -19 -4 0 -6 -43 -3 -96 3 -53 2 -98 -3
-101 -4 -2 -2 -13 3 -24 6 -10 7 -19 3 -19 -4 0 -6 -43 -3 -96 3 -53 2 -98 -3
-101 -4 -2 -2 -13 3 -24 6 -11 7 -19 1 -19 -5 0 -6 -14 -1 -35 4 -20 4 -38 -1
-41 -5 -3 -5 -13 1 -25 8 -14 7 -19 -1 -19 -9 0 -9 -3 0 -14 8 -10 9 -16 1
-21 -7 -4 -7 -12 0 -26 8 -14 7 -19 -1 -19 -9 0 -9 -3 0 -14 8 -10 9 -16 1
-21 -7 -4 -7 -12 0 -26 8 -14 7 -19 -1 -19 -9 0 -9 -3 0 -14 8 -10 9 -16 1
-21 -7 -4 -7 -12 0 -26 8 -14 7 -19 -1 -19 -9 0 -9 -3 0 -14 8 -10 9 -16 1
-21 -7 -4 -7 -12 0 -26 8 -14 7 -19 -1 -19 -9 0 -9 -3 0 -14 8 -10 9 -16 1
-21 -7 -4 -7 -12 0 -26 8 -14 7 -19 -1 -19 -9 0 -9 -3 0 -14 8 -10 9 -16 1
-21 -7 -4 -7 -12 0 -26 8 -14 7 -19 -1 -19 -8 0 -8 -4 -1 -13 6 -7 7 -18 2
-26 -9 -16 2 -56 16 -56 5 0 14 -4 21 -8 6 -4 14 -3 17 2 4 5 18 6 34 1 65
-20 111 -27 120 -18 6 6 12 6 16 -1 4 -6 22 -11 39 -11 18 0 47 -4 65 -9 18
-6 32 -6 32 -1 0 5 12 5 28 0 15 -4 81 -13 147 -20 66 -6 134 -15 151 -19 18
-5 38 -5 45 0 7 4 18 5 24 1 12 -8 10 -8 110 -17 43 -4 88 -11 100 -15 11 -4
30 -4 42 1 15 5 23 5 23 -2 0 -6 4 -8 9 -4 5 3 12 1 16 -5 4 -7 13 -7 26 0 11
6 25 7 32 3 6 -4 35 -9 62 -11 28 -1 62 -7 77 -12 16 -5 30 -5 33 0 3 5 17 5
33 0 15 -5 57 -11 93 -13 37 -3 72 -8 78 -11 6 -4 11 -2 11 4 0 7 6 8 18 2 16
-9 50 -13 222 -28 36 -3 76 -8 90 -11 14 -3 50 -7 80 -9 30 -1 57 -3 60 -4 3
-1 8 -2 12 -1 4 0 19 -4 33 -9 18 -7 25 -6 25 2 0 9 3 9 12 0 7 -7 17 -8 29
-2 10 6 20 6 23 2 2 -4 22 -9 43 -11 66 -5 78 -7 90 -14 6 -4 14 -3 18 3 4 6
12 7 18 3 15 -9 27 -11 86 -14 25 -1 54 -6 64 -11 11 -6 17 -5 17 2 0 6 5 8
12 4 6 -4 37 -9 67 -11 31 -3 57 -9 59 -14 2 -5 12 -4 23 2 11 5 25 7 31 3 7
-4 37 -9 67 -11 31 -2 67 -7 81 -12 14 -4 35 -5 48 0 14 5 22 5 22 -2 0 -7 13
-9 30 -7 17 3 33 1 36 -3 2 -5 11 -6 19 -3 7 3 23 0 35 -6 18 -10 21 -9 15 1
-5 8 -4 10 4 5 14 -9 32 -12 161 -25 126 -13 163 -18 255 -31 94 -14 156 -17
162 -7 3 4 11 3 17 -3 7 -5 46 -12 87 -15 41 -2 74 -5 74 -5 0 -3 37 -8 93
-14 53 -5 60 -4 65 13 2 11 0 24 -5 29 -6 6 -6 17 1 31 8 15 8 21 1 21 -7 0
-8 6 -1 18 6 11 6 24 0 33 -5 7 -9 34 -9 58 l0 44 69 -7 c129 -11 186 -19 202
-27 9 -5 30 -4 47 0 34 10 42 1 42 -50 0 -17 5 -39 10 -50 8 -13 7 -19 0 -19
-6 0 -8 -4 -5 -10 3 -5 1 -19 -5 -30 -9 -17 -8 -20 8 -20 11 0 25 7 32 15 7 8
17 15 22 15 5 0 24 10 41 22 34 25 52 31 80 30 9 0 17 3 17 9 0 5 8 9 19 9 10
0 24 7 31 15 7 9 15 13 17 11 3 -3 14 4 26 15 11 10 33 25 49 31 15 7 28 17
28 21 0 5 5 5 10 2 6 -3 10 -2 10 3 0 5 13 15 30 22 16 7 27 17 23 23 -4 6 0
8 10 4 10 -4 22 1 30 13 8 11 17 17 21 12 4 -4 6 12 5 35 -2 23 0 45 4 49 3 4
0 19 -8 35 -9 16 -11 30 -6 34 6 3 4 20 -5 41 -8 20 -11 33 -6 30 9 -5 7 58
-3 73 -7 12 -67 3 -80 -12 -13 -15 -65 -49 -65 -42 0 3 -8 -3 -18 -12 -38 -36
-76 -62 -84 -57 -4 3 -8 0 -8 -6 0 -7 -6 -8 -19 0 -13 6 -22 7 -26 0 -3 -5
-15 -6 -28 -1 -12 4 -42 9 -67 10 -25 2 -53 7 -62 12 -12 7 -18 6 -18 -1 0 -7
-6 -8 -17 -2 -10 5 -46 12 -81 15 -35 4 -67 9 -72 12 -6 4 -10 1 -10 -5 0 -7
-6 -8 -18 -1 -9 5 -51 11 -92 14 -98 8 -113 14 -107 44 2 13 0 26 -5 29 -5 3
-4 12 3 20 7 9 8 14 1 14 -6 0 -11 25 -11 60 0 33 -5 69 -11 80 -8 15 -8 20 1
20 8 0 8 4 1 13 -7 8 -7 18 -2 27 5 9 5 19 -1 26 -7 8 -6 15 2 19 7 5 7 10 1
14 -12 7 -27 209 -20 270 0 3 -1 8 -2 11 -7 19 -29 278 -31 373 -2 54 -6 100
-11 103 -4 3 -3 14 2 25 7 13 7 25 0 38 -18 35 -12 40 47 35 58 -6 92 -18 105
-37 4 -7 12 -6 22 2 18 15 142 7 163 -11 7 -6 12 -37 12 -79 0 -65 15 -113 30
-91 3 4 22 19 41 32 19 13 41 30 48 37 7 7 25 15 40 19 15 3 35 9 45 15 42 23
62 34 67 39 14 14 90 71 90 67 0 -3 14 8 31 24 17 16 44 37 60 46 28 17 29 20
29 93 -1 41 -5 94 -9 117 -4 23 -5 46 -1 50 12 12 -7 53 -25 53 -8 0 -15 -4
-15 -10 0 -5 -7 -10 -16 -10 -19 0 -64 -34 -137 -103 -50 -47 -53 -48 -97 -42
-25 4 -67 9 -95 10 -27 1 -50 3 -50 5 0 1 -16 4 -35 7 -19 2 -41 8 -50 13 -9
5 -22 5 -30 0 -8 -5 -17 -5 -20 0 -3 5 -27 10 -53 12 -26 2 -47 5 -47 8 0 3
-15 6 -32 6 -36 1 -103 11 -130 20 -17 5 -34 41 -24 51 3 3 1 14 -4 24 -7 12
-7 20 0 24 6 4 7 12 3 18 -4 7 -9 46 -11 87 -2 41 -8 80 -13 87 -7 7 -6 14 1
18 7 4 7 12 0 26 -8 14 -7 19 1 19 9 0 9 3 0 14 -8 10 -9 16 -1 21 6 3 7 12 3
18 -4 7 -10 39 -13 72 l-5 60 -95 15 c-52 8 -100 18 -105 22 -6 4 -17 3 -25
-2 -8 -5 -21 -5 -29 -1 -9 5 -56 14 -106 20 -49 7 -102 16 -116 21 -17 5 -31
4 -38 -3 -8 -8 -11 -8 -11 0 0 9 -45 21 -90 24 -8 0 -40 5 -70 11 -30 6 -74
12 -98 13 -23 1 -45 5 -48 8 -3 3 -12 3 -20 0 -8 -3 -14 -1 -14 3 0 5 -23 10
-52 12 -29 2 -57 7 -64 13 -8 7 -14 6 -19 -1 -3 -6 -12 -7 -18 -3 -7 4 -23 9
-37 11 -14 1 -63 9 -108 17 -46 8 -87 14 -90 13 -4 -1 -14 1 -22 5 -8 3 -55
11 -105 18 -49 6 -99 13 -110 16 -11 2 -36 6 -55 9 -19 2 -46 7 -59 9 -13 2
-45 7 -70 10 -25 4 -53 9 -61 12 -8 3 -26 7 -40 8 -90 10 -134 17 -141 21 -4
2 -32 7 -61 9 -64 6 -78 9 -100 19 -10 5 -25 6 -33 3 -8 -4 -17 -2 -20 4 -4 5
-18 9 -33 10 -51 1 -117 7 -132 12 -23 8 -104 20 -210 31 -14 1 -30 4 -35 7
-6 3 -25 6 -44 8 -19 2 -45 7 -57 12 -15 5 -26 4 -30 -2 -3 -6 -10 -6 -17 -1
-15 11 -66 22 -136 29 -30 3 -72 11 -94 19 -21 8 -43 12 -47 9 -4 -2 -39 2
-78 9 -39 7 -74 11 -77 8 -3 -3 -5 0 -5 7 0 8 -5 9 -18 2 -11 -6 -23 -6 -28
-2 -5 5 -27 12 -49 15 -94 13 -121 17 -140 22 -11 3 -45 8 -75 11 -30 3 -61
10 -67 15 -9 7 -13 7 -13 1 0 -10 -26 -6 -117 17 -18 4 -33 4 -33 0z m530
-894 c50 -23 76 -94 56 -153 -6 -18 -15 -23 -42 -23 -33 0 -34 1 -34 42 0 46
-22 78 -53 78 -27 0 -48 -30 -36 -52 6 -11 5 -19 -1 -23 -8 -5 -7 -11 1 -21 9
-11 9 -14 0 -14 -8 0 -9 -5 -1 -19 7 -14 7 -22 0 -26 -8 -5 -8 -11 0 -20 8 -9
8 -15 0 -20 -6 -3 -7 -11 -4 -17 4 -6 8 -23 9 -37 3 -48 5 -52 15 -46 6 3 10
-1 10 -10 0 -12 7 -15 28 -13 24 3 27 8 30 45 4 51 21 67 62 58 29 -6 31 -9
28 -51 -2 -24 -7 -44 -11 -44 -5 0 -6 -4 -3 -9 4 -5 -5 -23 -20 -40 -21 -25
-32 -30 -69 -29 -23 0 -48 -3 -54 -6 -6 -4 -11 -3 -11 1 0 5 -14 14 -30 20
-46 17 -67 76 -69 198 -2 134 12 197 52 231 25 21 38 25 72 22 22 -3 56 -12
75 -22z m284 -28 c3 3 24 -14 47 -37 32 -32 40 -47 36 -66 -2 -14 0 -25 5 -25
6 0 8 -53 6 -129 -3 -112 -6 -133 -24 -157 -25 -34 -81 -67 -89 -53 -4 5 -10
7 -15 4 -15 -10 -74 21 -102 52 -26 30 -26 33 -27 186 l-2 155 32 37 c18 20
38 34 45 31 8 -3 14 -1 14 3 0 5 16 5 34 1 19 -4 37 -5 40 -2z m234 -54 c6
-11 11 -13 16 -5 4 6 29 11 56 11 42 0 52 -4 75 -31 14 -18 25 -41 24 -53 0
-12 0 -23 1 -26 6 -14 15 -290 9 -312 -1 -5 -2 -14 -3 -20 0 -7 -17 -14 -37
-16 -33 -3 -38 0 -47 26 -6 18 -6 35 0 45 5 11 5 24 -2 37 -8 14 -8 20 0 20 6
0 8 5 4 12 -11 17 -11 58 -1 58 5 0 6 8 2 18 -8 18 -8 21 -5 62 2 33 -9 81
-22 98 -6 7 -23 12 -37 10 l-26 -3 0 -135 c-1 -74 3 -140 8 -147 5 -7 5 -17 1
-24 -4 -6 -7 -21 -8 -33 -1 -18 -7 -21 -41 -21 l-40 0 -6 125 c-3 69 -8 131
-12 137 -4 6 -3 14 3 18 7 4 7 12 0 26 -8 14 -7 19 2 19 9 0 9 3 0 12 -8 8 -8
15 -1 24 7 8 7 14 -1 19 -7 4 -7 12 0 26 6 10 8 19 5 19 -4 0 -3 5 0 10 10 17
73 12 83 -6z m287 -29 c10 0 26 -70 25 -112 0 -13 5 -23 10 -23 6 0 6 -9 0
-25 -6 -15 -6 -25 0 -25 5 0 10 -9 12 -20 4 -25 23 -22 22 3 0 9 3 17 8 17 5
0 6 5 3 10 -3 6 -2 10 2 10 5 0 8 16 7 35 -1 20 3 35 9 35 8 0 8 3 0 11 -7 7
-7 17 1 35 9 20 18 24 54 24 41 0 42 -1 36 -27 -3 -16 -7 -41 -10 -58 -2 -16
-7 -37 -10 -45 -4 -8 -8 -28 -10 -45 -2 -16 -6 -41 -9 -55 -4 -14 -8 -38 -11
-53 -2 -16 -7 -33 -10 -39 -4 -6 -8 -27 -10 -46 -3 -32 -44 -93 -44 -65 0 6
-8 9 -17 7 -10 -2 -24 0 -31 4 -12 8 -47 121 -57 182 -2 14 -9 45 -15 70 -6
25 -13 62 -17 83 -3 20 -9 37 -12 37 -4 0 -6 17 -6 38 0 32 3 37 23 36 12 0
22 3 22 8 0 5 6 6 13 1 6 -4 17 -8 22 -8z m422 -79 l38 -34 0 -94 0 -93 -50
-1 c-27 -1 -57 3 -66 7 -27 14 -42 -14 -35 -62 7 -51 21 -69 52 -69 19 0 26 7
31 30 7 38 16 44 58 36 l33 -6 -10 -42 c-5 -24 -14 -46 -21 -50 -7 -4 -7 -8
-2 -8 6 0 -1 -7 -15 -14 -14 -8 -28 -12 -32 -10 -5 3 -8 0 -8 -7 0 -18 -86 -3
-120 21 -26 19 -59 85 -47 96 3 3 -1 17 -8 31 -8 15 -11 31 -8 36 3 5 5 44 4
86 -2 83 8 123 41 159 17 17 32 22 75 22 47 0 58 -4 90 -34z m183 -15 c0 -10
51 -8 69 3 6 4 18 3 25 -3 7 -6 15 -8 18 -5 3 2 17 -9 32 -26 24 -29 26 -39
26 -120 0 -49 4 -100 10 -114 6 -16 6 -27 0 -31 -7 -4 -6 -13 0 -26 6 -10 7
-19 3 -19 -4 0 -8 -24 -8 -52 0 -53 0 -53 -34 -56 -18 -2 -37 0 -42 5 -4 4 -9
64 -10 133 0 69 -6 131 -11 138 -7 7 -7 17 -1 25 19 25 -7 77 -40 77 -29 0
-53 -15 -38 -24 8 -5 8 -13 1 -26 -6 -11 -6 -21 -1 -24 5 -3 8 -68 7 -143 l-1
-138 -37 -2 c-37 -1 -38 0 -39 35 0 21 -4 46 -8 56 -4 11 -4 37 -1 58 4 21 4
41 -1 44 -4 2 -4 15 1 28 4 12 5 29 0 36 -4 7 -4 26 0 41 5 17 5 31 -1 34 -10
7 -12 88 -2 98 10 10 83 8 83 -2z m304 -39 c2 -4 5 -32 7 -62 1 -30 6 -63 11
-72 5 -10 4 -19 -2 -23 -7 -4 -7 -12 0 -25 7 -13 7 -21 0 -25 -8 -5 -8 -11 0
-20 8 -9 8 -15 0 -20 -6 -4 -7 -13 -2 -23 5 -9 8 -48 8 -87 l-1 -70 -40 0
c-37 0 -40 2 -41 28 -1 15 -4 30 -7 33 -3 3 -2 17 3 30 6 15 6 24 0 24 -6 0
-6 9 0 24 5 13 5 27 0 32 -11 11 -15 221 -5 247 7 17 59 25 69 9z m207 -22
c43 -12 77 -46 87 -86 3 -16 6 -60 7 -99 0 -79 8 -74 -99 -62 l-58 7 7 -47 c4
-27 14 -56 22 -65 18 -21 59 -24 61 -5 3 33 10 50 25 59 11 5 17 5 17 0 0 -6
8 -9 17 -8 14 1 18 -8 20 -38 2 -33 -3 -44 -37 -78 -22 -21 -40 -35 -40 -31 0
5 -18 7 -40 5 -25 -3 -40 0 -40 7 0 6 -6 11 -12 11 -25 1 -70 50 -65 70 3 11
1 23 -4 26 -5 3 -9 35 -10 72 0 37 -4 75 -8 86 -11 27 11 118 37 150 12 16 22
25 22 20 0 -4 5 -3 12 4 15 15 32 15 79 2z m215 -44 c5 -14 28 -16 40 -3 12
12 54 8 88 -8 40 -19 55 -67 58 -187 1 -49 5 -88 8 -88 7 0 4 -66 -5 -79 -3
-6 -1 -11 5 -11 6 0 8 -5 4 -11 -4 -7 -7 -21 -8 -33 -1 -14 -8 -21 -21 -21
-11 -1 -25 -4 -31 -8 -13 -8 -27 19 -18 34 3 5 0 9 -6 9 -7 0 -8 6 0 19 7 13
7 22 0 26 -5 3 -10 44 -10 90 0 50 -4 87 -11 91 -7 4 -8 9 0 17 6 6 7 16 1 28
-7 11 -7 20 0 24 14 9 -21 40 -47 43 -23 2 -23 0 -23 -112 0 -63 4 -125 9
-139 5 -13 5 -30 1 -37 -5 -8 -5 -19 0 -25 16 -20 -16 -47 -52 -43 l-33 3 -5
115 c-3 63 -8 120 -13 127 -4 6 -3 14 3 18 7 4 7 12 0 26 -6 10 -7 19 -3 19 9
0 9 78 0 87 -4 3 -2 14 4 24 11 22 57 26 65 5z m361 -35 c9 8 13 8 13 0 0 -6
7 -11 15 -11 28 0 65 -24 65 -42 0 -10 6 -21 14 -24 8 -3 12 -12 9 -21 -3 -8
-6 -31 -7 -51 -1 -35 -3 -37 -37 -39 -36 -3 -37 -2 -37 32 0 44 -26 85 -54 85
-20 0 -21 -3 -16 -136 4 -129 6 -136 30 -159 17 -16 29 -20 39 -14 8 5 10 9 6
9 -5 0 -5 6 0 13 4 6 6 20 5 29 -6 34 15 55 47 50 30 -4 31 -6 31 -54 0 -51
-12 -85 -39 -105 -18 -14 -121 -18 -121 -4 0 5 -9 11 -19 14 -32 8 -59 74 -62
152 -2 39 -7 75 -12 82 -5 7 -4 20 3 32 7 14 8 27 1 38 -5 11 -5 24 2 37 5 12
13 28 17 36 11 25 72 62 84 50 6 -6 14 -6 23 1z m323 -57 c30 -15 66 -52 57
-60 -3 -4 0 -19 9 -35 9 -18 10 -29 4 -29 -7 0 -7 -6 0 -20 11 -21 10 -99 -1
-90 -3 3 -13 -1 -22 -8 -10 -9 -17 -10 -22 -2 -3 5 -27 10 -52 10 l-46 0 6
-46 c6 -53 43 -99 68 -83 8 5 11 9 7 9 -4 0 -2 14 3 30 9 24 17 30 40 30 30 0
30 -1 28 -51 -2 -46 -6 -54 -33 -70 -48 -29 -99 -25 -140 12 -41 36 -67 82
-56 100 5 7 4 22 0 35 -5 12 -10 64 -11 115 -2 91 -1 93 31 132 28 33 37 38
69 36 20 -2 47 -8 61 -15z m-1659 -334 c17 0 19 -8 19 -60 0 -60 0 -60 29 -60
27 0 30 -3 29 -30 -1 -21 -8 -35 -22 -42 -12 -6 -22 -11 -23 -10 -17 11 -25
-51 -10 -74 8 -14 11 -159 3 -172 -4 -6 7 -26 24 -43 16 -18 30 -29 30 -25 0
4 5 4 10 1 6 -4 7 -12 3 -18 -4 -7 -8 -19 -8 -27 0 -22 -68 -25 -99 -5 -38 25
-42 41 -46 213 -1 56 -7 105 -12 108 -5 3 -5 11 2 19 8 9 8 15 0 20 -6 3 -8
11 -5 16 5 8 -16 14 -37 10 -11 -1 -10 51 1 68 6 9 16 11 27 7 10 -4 15 -4 12
0 -4 4 -3 15 2 25 7 11 7 20 0 24 -20 12 15 69 37 60 8 -3 23 -5 34 -5z m-223
-79 c67 -20 100 -82 76 -145 -13 -34 -65 -13 -72 29 -4 22 -42 56 -54 49 -20
-12 -7 -63 22 -87 17 -14 30 -28 30 -32 0 -3 16 -20 36 -37 47 -41 64 -77 64
-133 0 -40 -5 -51 -36 -81 -33 -30 -59 -41 -89 -34 -5 1 -18 3 -27 5 -48 10
-87 54 -95 109 -2 17 -6 37 -8 43 -5 16 26 33 58 33 22 0 26 -6 31 -44 7 -46
17 -60 52 -68 21 -5 24 0 25 46 0 11 -6 23 -13 27 -7 5 -9 9 -5 9 12 0 -20 30
-32 30 -6 0 -11 3 -11 8 0 4 -10 18 -23 32 -58 64 -67 82 -67 134 0 28 5 58
10 66 5 8 10 11 10 6 0 -5 11 3 25 18 26 28 42 31 93 17z m507 -77 c14 -9 25
-13 25 -8 0 11 33 -37 39 -56 2 -8 5 -53 5 -100 1 -63 5 -88 16 -97 11 -9 12
-12 2 -13 -10 0 -10 -5 -2 -20 6 -11 7 -20 3 -20 -5 0 -9 -15 -8 -32 0 -24
-10 -44 -35 -71 -33 -36 -37 -38 -80 -33 -25 4 -51 7 -57 8 -7 1 -13 5 -13 10
0 4 -6 8 -13 8 -18 0 -44 65 -52 130 -4 30 -9 58 -11 62 -2 4 0 9 6 13 7 4 7
12 0 26 -6 11 -7 19 -1 19 5 0 6 14 1 34 -4 19 -5 37 -2 40 3 3 7 18 8 32 2
15 15 40 30 55 22 23 36 29 71 29 24 0 55 -7 68 -16z m200 -34 c-3 -5 -1 -11
5 -15 6 -4 8 -11 5 -16 -4 -5 -1 -9 4 -9 6 0 11 5 11 12 0 6 3 8 7 5 3 -4 12
2 20 12 11 17 18 18 42 10 25 -9 27 -13 22 -47 -6 -34 -9 -37 -44 -40 -38 -3
-68 -34 -47 -47 8 -5 8 -11 1 -19 -6 -7 -8 -16 -4 -20 8 -8 8 -85 -1 -93 -3
-3 -1 -12 5 -20 6 -7 8 -13 3 -13 -5 0 -9 -30 -9 -67 0 -67 0 -68 -27 -69 -50
-2 -52 5 -56 158 -2 79 -8 147 -13 152 -4 5 -4 17 2 28 6 11 6 25 1 35 -10 17
-5 50 9 69 10 12 71 6 64 -6z m315 -30 c36 -19 62 -69 65 -125 2 -30 6 -58 9
-64 4 -5 2 -12 -4 -16 -6 -4 -8 -11 -4 -16 11 -18 -16 -40 -37 -28 -14 7 -19
6 -19 -3 0 -9 -3 -9 -12 0 -7 7 -30 12 -51 12 -31 0 -38 -3 -33 -15 3 -8 1
-15 -5 -15 -6 0 -6 -8 2 -21 6 -12 9 -30 6 -40 -3 -10 -1 -19 4 -19 5 0 18 -9
29 -20 18 -18 23 -19 35 -7 7 8 15 27 17 43 3 26 7 29 41 31 37 1 37 1 37 -39
0 -33 -6 -47 -34 -74 -31 -30 -38 -33 -86 -29 -44 3 -58 9 -87 37 -21 22 -36
48 -39 69 -3 19 -7 39 -9 46 -2 7 0 15 5 18 7 4 6 13 0 25 -5 10 -10 57 -10
104 0 81 2 87 31 121 28 31 36 35 81 35 27 0 58 -4 68 -10z"/>
<path d="M2125 4041 c2 -4 0 -13 -5 -21 -5 -9 -5 -19 2 -27 7 -9 7 -13 -1 -13
-8 0 -9 -5 -1 -19 7 -14 7 -22 0 -26 -8 -5 -8 -11 0 -20 8 -10 8 -19 0 -34 -8
-16 -8 -27 1 -43 7 -13 11 -25 10 -28 -2 -3 -7 -12 -11 -20 -10 -19 21 -60 47
-60 26 0 48 16 34 24 -7 5 -8 13 -1 25 6 12 5 22 -2 29 -9 9 -9 12 0 12 9 0
10 5 2 19 -7 14 -7 22 0 26 6 4 7 12 3 18 -11 17 -13 37 -4 37 9 0 -9 88 -21
106 -8 12 -61 26 -53 15z"/>
<path d="M3029 3917 c-15 -12 -16 -32 -4 -85 4 -18 9 -21 18 -13 8 6 18 6 27
1 17 -11 37 -13 27 -4 -3 4 -2 15 3 24 14 27 -48 94 -71 77z"/>
<path d="M3772 3763 c3 -46 5 -48 34 -51 25 -2 33 1 37 17 3 12 1 21 -5 21 -5
0 -6 5 -3 11 9 14 -24 49 -47 49 -17 0 -19 -6 -16 -47z"/>
<path d="M4650 3641 c0 -34 5 -51 15 -54 8 -4 17 -2 20 3 3 5 12 7 19 4 21 -8
26 10 11 39 -8 15 -11 27 -7 27 3 0 -3 7 -14 15 -34 26 -44 18 -44 -34z"/>
<path d="M3271 3060 c1 -143 10 -177 47 -177 15 0 21 4 18 13 -3 7 -1 16 4 19
7 4 6 13 0 26 -6 11 -7 19 -1 19 5 0 6 14 1 35 -4 20 -4 38 1 41 5 3 5 13 -1
25 -6 10 -7 19 -2 19 12 0 -2 76 -18 95 -7 8 -21 15 -32 15 -18 0 -19 -8 -17
-130z"/>
<path d="M3778 3111 c-8 -42 4 -77 31 -87 51 -20 61 -3 40 67 -10 32 -16 37
-40 37 -17 -1 -29 -7 -31 -17z"/>
</g>
</svg>
